<svg width="25" height="25" viewBox="0 0 25 25" fill="none" xmlns="http://www.w3.org/2000/svg">
<ellipse cx="12.4988" cy="12.5" rx="12.4988" ry="12.5" fill="white"/>
<path d="M18.1239 8.63666C18.1239 7.70078 17.2982 6.875 16.3624 6.875H9.26147C8.32569 6.875 7.5 7.70078 7.5 8.63666V15.7383C7.5 16.6742 8.32569 17.5 9.26147 17.5H12.8395V13.4812H11.5184V11.7196H12.8395V11.0039C12.8395 9.79275 13.7202 8.74676 14.8211 8.74676H16.2523V10.5084H14.8211C14.656 10.5084 14.4909 10.6736 14.4909 11.0039V11.7196H16.2523V13.4812H14.4909V17.5H16.3624C17.2982 17.5 18.1239 16.6742 18.1239 15.7383V8.63666Z" fill="#8253D8"/>
</svg>
