<svg width="25" height="25" viewBox="0 0 25 25" fill="none" xmlns="http://www.w3.org/2000/svg">
<ellipse cx="12.4988" cy="12.5" rx="12.4988" ry="12.5" fill="white"/>
<path d="M16.613 7.5H9.01202C8.15384 7.5 7.5 8.15385 7.5 9.01202V16.613C7.5 17.4712 8.15384 18.125 9.01202 18.125H16.613C17.4712 18.125 18.125 17.4712 18.125 16.613V9.01202C18.125 8.15385 17.4712 7.5 16.613 7.5ZM12.8125 16C14.5697 16 16 14.6106 16 12.9351C16 12.649 15.9591 12.3221 15.8774 12.0769H16.7764V16.4087C16.7764 16.613 16.613 16.8173 16.3678 16.8173H9.25721C9.05289 16.8173 8.84856 16.6538 8.84856 16.4087V12.0361H9.78846C9.70673 12.3221 9.66587 12.6082 9.66587 12.8942C9.625 14.6106 11.0553 16 12.8125 16ZM12.8125 14.774C11.6683 14.774 10.7692 13.875 10.7692 12.7716C10.7692 11.6683 11.6683 10.7692 12.8125 10.7692C13.9567 10.7692 14.8558 11.6683 14.8558 12.7716C14.8558 13.9159 13.9567 14.774 12.8125 14.774ZM16.7356 10.4014C16.7356 10.6466 16.5312 10.851 16.2861 10.851H15.1418C14.8966 10.851 14.6923 10.6466 14.6923 10.4014V9.29808C14.6923 9.05288 14.8966 8.84856 15.1418 8.84856H16.2861C16.5312 8.84856 16.7356 9.05288 16.7356 9.29808V10.4014Z" fill="#8253D8"/>
</svg>
