<svg width="25" height="25" viewBox="0 0 25 25" fill="none" xmlns="http://www.w3.org/2000/svg">
<ellipse cx="12.4988" cy="12.5" rx="12.4988" ry="12.5" fill="white"/>
<path d="M19.1239 9.3125C18.6864 9.5 18.1865 9.625 17.6865 9.6875C18.1865 9.375 18.6239 8.875 18.8114 8.3125C18.3115 8.625 17.8115 8.8125 17.1866 8.9375C16.7491 8.4375 16.0617 8.125 15.3742 8.125C13.9994 8.125 12.8745 9.25 12.8745 10.625C12.8745 10.8125 12.8745 11 12.937 11.1875C10.8746 11.0625 8.99981 10.0625 7.74992 8.5625C7.56243 8.9375 7.43745 9.375 7.43745 9.8125C7.43745 10.6875 7.87491 11.4375 8.56235 11.875C8.12489 11.875 7.74992 11.75 7.43745 11.5625C7.43745 12.75 8.31237 13.8125 9.43727 14C9.24978 14.0625 8.99981 14.0625 8.74983 14.0625C8.56235 14.0625 8.43736 14.0625 8.24988 14C8.56235 15 9.49977 15.75 10.6247 15.75C9.74974 16.4375 8.68734 16.8125 7.49994 16.8125C7.31246 16.8125 7.12498 16.8125 6.875 16.75C7.9999 17.4375 9.31228 17.875 10.7497 17.875C15.3742 17.875 17.874 14.0625 17.874 10.75V10.4375C18.374 10.25 18.8114 9.8125 19.1239 9.3125Z" fill="#8253D8"/>
</svg>
