<svg width="37" height="32" viewBox="0 0 37 32" fill="none" xmlns="http://www.w3.org/2000/svg">
<path d="M34.5175 25.5472C35.5315 23.7857 36.0727 21.813 36.0932 19.8044C36.1136 17.7957 35.6126 15.8133 34.6347 14.0335C33.6568 12.2537 32.2323 10.7316 30.4878 9.60252C28.7433 8.47343 26.733 7.77232 24.6354 7.56155C23.9747 6.02758 22.9922 4.63815 21.7481 3.47829C20.5041 2.31843 19.0246 1.41253 17.4002 0.816022C15.7758 0.219516 14.0408 -0.0550466 12.3011 0.00913454C10.5615 0.0733157 8.85391 0.474891 7.28287 1.18929C5.71182 1.90368 4.31036 2.91587 3.16424 4.16392C2.01812 5.41196 1.15145 6.86961 0.617272 8.44766C0.0830904 10.0257 -0.107371 11.691 0.0575438 13.3416C0.222459 14.9921 0.739281 16.5933 1.57638 18.0471L0.524877 21.5527C0.428343 21.8742 0.423857 22.2145 0.511884 22.5382C0.599911 22.8619 0.777247 23.1573 1.02551 23.3938C1.27377 23.6303 1.58393 23.7992 1.92382 23.8831C2.26372 23.967 2.62098 23.9627 2.95858 23.8708L6.63957 22.8692C8.12824 23.6469 9.76477 24.134 11.4535 24.3021C12.1371 25.8905 13.1653 27.3235 14.4706 28.5073C15.776 29.6912 17.3291 30.5992 19.0284 31.1719C20.7276 31.7446 22.5347 31.9692 24.3314 31.8308C26.128 31.6925 27.8738 31.1944 29.4544 30.3692L33.1353 31.3708C33.4729 31.4627 33.8302 31.4669 34.1701 31.3831C34.51 31.2992 34.8201 31.1303 35.0684 30.8939C35.3166 30.6574 35.494 30.362 35.5821 30.0383C35.6701 29.7146 35.6657 29.3744 35.5692 29.0529L34.5175 25.5472ZM6.7679 20.9218C6.67643 20.9218 6.5854 20.9339 6.49746 20.9579L2.41785 22.068L3.58343 18.1825C3.62024 18.0597 3.63032 17.931 3.61304 17.8043C3.59577 17.6776 3.55151 17.5556 3.48297 17.4458C2.13796 15.2859 1.66707 12.7327 2.15874 10.2655C2.65041 7.79842 4.0708 5.58709 6.15322 4.04675C8.23564 2.50641 10.8368 1.74302 13.4684 1.89992C16.1 2.05682 18.5809 3.12322 20.4454 4.89888C22.3098 6.67454 23.4295 9.03733 23.5943 11.5436C23.759 14.0498 22.9575 16.5272 21.3401 18.5104C19.7227 20.4937 17.4008 21.8465 14.8104 22.3147C12.2199 22.783 9.53902 22.3345 7.27115 21.0535C7.11889 20.9673 6.94504 20.9218 6.7679 20.9218ZM32.5105 25.6824L33.6762 29.568L29.5965 28.4579C29.4675 28.4228 29.3324 28.4132 29.1993 28.4296C29.0663 28.446 28.9382 28.4882 28.8229 28.5535C27.5473 29.2736 26.1299 29.7366 24.6587 29.9139C23.1875 30.0912 21.6938 29.9789 20.27 29.584C18.8462 29.1892 17.5227 28.5201 16.3815 27.6183C15.2402 26.7166 14.3055 25.6012 13.6351 24.3415C15.4762 24.2278 17.2697 23.736 18.8924 22.8999C20.5151 22.0637 21.9285 20.903 23.0357 19.4975C24.1429 18.0919 24.9175 16.4748 25.3064 14.7572C25.6954 13.0396 25.6894 11.2621 25.2889 9.5469C27.001 9.85243 28.6105 10.5468 29.9808 11.571C31.3512 12.5952 32.4419 13.9191 33.1605 15.4303C33.8791 16.9415 34.2043 18.5956 34.1087 20.252C34.013 21.9085 33.4992 23.5186 32.611 24.9457C32.5424 25.0555 32.4981 25.1775 32.4809 25.3042C32.4636 25.4309 32.4737 25.5596 32.5105 25.6824Z" fill="white"/>
</svg>
